<mxfile modified="2020-09-12T03:17:18.820Z" host="app.diagrams.net" agent="5.0 (Macintosh; Intel Mac OS X 10_15_6) AppleWebKit/605.1.15 (KHTML, like Gecko) Version/13.1.2 Safari/605.1.15" etag="tYRtspdTmU2vHhrLeYBJ" version="13.6.10" type="github">
  <diagram id="Ht1M8jgEwFfnCIfOTk4-" name="Page-1">
    <mxGraphModel dx="1577" dy="1930" grid="1" gridSize="10" guides="1" tooltips="1" connect="1" arrows="1" fold="1" page="1" pageScale="1" pageWidth="1169" pageHeight="827" math="0" shadow="0">
      <root>
        <mxCell id="0" />
        <mxCell id="1" style="" parent="0" />
        <mxCell id="pypCEFf90RMoGnQe8PBk-18" value="AWS Cloud" style="points=[[0,0],[0.25,0],[0.5,0],[0.75,0],[1,0],[1,0.25],[1,0.5],[1,0.75],[1,1],[0.75,1],[0.5,1],[0.25,1],[0,1],[0,0.75],[0,0.5],[0,0.25]];outlineConnect=0;gradientColor=none;html=1;whiteSpace=wrap;fontSize=12;fontStyle=0;shape=mxgraph.aws4.group;grIcon=mxgraph.aws4.group_aws_cloud_alt;strokeColor=#232F3E;fillColor=none;verticalAlign=top;align=left;spacingLeft=30;fontColor=#232F3E;dashed=0;shadow=0;" vertex="1" parent="1">
          <mxGeometry x="10" y="-820" width="1150" height="810" as="geometry" />
        </mxCell>
        <mxCell id="pypCEFf90RMoGnQe8PBk-34" value="vpc" style="" parent="0" />
        <mxCell id="pypCEFf90RMoGnQe8PBk-43" value="Generic group" style="fillColor=none;strokeColor=#5A6C86;dashed=1;verticalAlign=top;fontStyle=0;fontColor=#5A6C86;shadow=0;" vertex="1" parent="pypCEFf90RMoGnQe8PBk-34">
          <mxGeometry x="40" y="-780" width="680" height="384" as="geometry" />
        </mxCell>
        <mxCell id="pypCEFf90RMoGnQe8PBk-44" value="Auto Scaling group" style="points=[[0,0],[0.25,0],[0.5,0],[0.75,0],[1,0],[1,0.25],[1,0.5],[1,0.75],[1,1],[0.75,1],[0.5,1],[0.25,1],[0,1],[0,0.75],[0,0.5],[0,0.25]];outlineConnect=0;gradientColor=none;html=1;whiteSpace=wrap;fontSize=12;fontStyle=0;shape=mxgraph.aws4.groupCenter;grIcon=mxgraph.aws4.group_auto_scaling_group;grStroke=1;strokeColor=#D86613;fillColor=none;verticalAlign=top;align=center;fontColor=#D86613;dashed=1;spacingTop=25;shadow=0;" vertex="1" parent="pypCEFf90RMoGnQe8PBk-34">
          <mxGeometry x="238" y="-706" width="262" height="130" as="geometry" />
        </mxCell>
        <mxCell id="pypCEFf90RMoGnQe8PBk-45" value="" style="outlineConnect=0;fontColor=#232F3E;gradientColor=none;fillColor=#D86613;strokeColor=none;dashed=0;verticalLabelPosition=bottom;verticalAlign=top;align=center;html=1;fontSize=16;fontStyle=0;aspect=fixed;pointerEvents=1;shape=mxgraph.aws4.t2_instance;shadow=0;" vertex="1" parent="pypCEFf90RMoGnQe8PBk-34">
          <mxGeometry x="257" y="-650" width="48" height="48" as="geometry" />
        </mxCell>
        <mxCell id="pypCEFf90RMoGnQe8PBk-46" value="" style="outlineConnect=0;fontColor=#232F3E;gradientColor=none;fillColor=#D86613;strokeColor=none;dashed=0;verticalLabelPosition=bottom;verticalAlign=top;align=center;html=1;fontSize=16;fontStyle=0;aspect=fixed;pointerEvents=1;shape=mxgraph.aws4.t2_instance;shadow=0;" vertex="1" parent="pypCEFf90RMoGnQe8PBk-34">
          <mxGeometry x="437" y="-650" width="48" height="48" as="geometry" />
        </mxCell>
        <mxCell id="pypCEFf90RMoGnQe8PBk-47" value="" style="outlineConnect=0;fontColor=#232F3E;gradientColor=none;fillColor=#D86613;strokeColor=none;dashed=0;verticalLabelPosition=bottom;verticalAlign=top;align=center;html=1;fontSize=16;fontStyle=0;aspect=fixed;pointerEvents=1;shape=mxgraph.aws4.t2_instance;shadow=0;" vertex="1" parent="pypCEFf90RMoGnQe8PBk-34">
          <mxGeometry x="378" y="-650" width="48" height="48" as="geometry" />
        </mxCell>
        <mxCell id="pypCEFf90RMoGnQe8PBk-48" value="" style="outlineConnect=0;fontColor=#232F3E;gradientColor=none;fillColor=#D86613;strokeColor=none;dashed=0;verticalLabelPosition=bottom;verticalAlign=top;align=center;html=1;fontSize=12;fontStyle=0;aspect=fixed;pointerEvents=1;shape=mxgraph.aws4.t2_instance;shadow=0;" vertex="1" parent="pypCEFf90RMoGnQe8PBk-34">
          <mxGeometry x="317" y="-650" width="48" height="48" as="geometry" />
        </mxCell>
        <mxCell id="pypCEFf90RMoGnQe8PBk-49" value="ALB&lt;br style=&quot;font-size: 16px;&quot;&gt;" style="outlineConnect=0;fontColor=#232F3E;gradientColor=none;fillColor=#5A30B5;strokeColor=none;dashed=0;verticalLabelPosition=bottom;verticalAlign=top;align=center;html=1;fontSize=16;fontStyle=0;aspect=fixed;pointerEvents=1;shape=mxgraph.aws4.application_load_balancer;shadow=0;" vertex="1" parent="pypCEFf90RMoGnQe8PBk-34">
          <mxGeometry x="100" y="-676" width="78" height="78" as="geometry" />
        </mxCell>
        <mxCell id="pypCEFf90RMoGnQe8PBk-50" value="RDS&lt;br&gt;" style="outlineConnect=0;fontColor=#232F3E;gradientColor=none;fillColor=#3334B9;strokeColor=none;dashed=0;verticalLabelPosition=bottom;verticalAlign=top;align=center;html=1;fontSize=16;fontStyle=0;aspect=fixed;pointerEvents=1;shape=mxgraph.aws4.rds_mysql_instance;shadow=0;" vertex="1" parent="pypCEFf90RMoGnQe8PBk-34">
          <mxGeometry x="317" y="-536" width="78" height="78" as="geometry" />
        </mxCell>
        <mxCell id="pypCEFf90RMoGnQe8PBk-51" value="" style="outlineConnect=0;fontColor=#232F3E;gradientColor=#945DF2;gradientDirection=north;fillColor=#5A30B5;strokeColor=#ffffff;dashed=0;verticalLabelPosition=bottom;verticalAlign=top;align=center;html=1;fontSize=12;fontStyle=0;aspect=fixed;shape=mxgraph.aws4.resourceIcon;resIcon=mxgraph.aws4.vpc;shadow=0;" vertex="1" parent="pypCEFf90RMoGnQe8PBk-34">
          <mxGeometry x="40" y="-780" width="34" height="34" as="geometry" />
        </mxCell>
        <mxCell id="pypCEFf90RMoGnQe8PBk-52" value="s3" parent="0" />
        <mxCell id="pypCEFf90RMoGnQe8PBk-57" value="Generic group" style="fillColor=none;strokeColor=#5A6C86;dashed=1;verticalAlign=top;fontStyle=0;fontColor=#5A6C86;shadow=0;" vertex="1" parent="pypCEFf90RMoGnQe8PBk-52">
          <mxGeometry x="40" y="-370" width="790" height="240" as="geometry" />
        </mxCell>
        <mxCell id="pypCEFf90RMoGnQe8PBk-58" value="" style="outlineConnect=0;fontColor=#232F3E;gradientColor=none;fillColor=#277116;strokeColor=none;dashed=0;verticalLabelPosition=bottom;verticalAlign=top;align=center;html=1;fontSize=16;fontStyle=0;aspect=fixed;pointerEvents=1;shape=mxgraph.aws4.bucket;shadow=0;" vertex="1" parent="pypCEFf90RMoGnQe8PBk-52">
          <mxGeometry x="380" y="-300" width="75" height="78" as="geometry" />
        </mxCell>
        <mxCell id="pypCEFf90RMoGnQe8PBk-59" value="" style="outlineConnect=0;fontColor=#232F3E;gradientColor=none;fillColor=#277116;strokeColor=none;dashed=0;verticalLabelPosition=bottom;verticalAlign=top;align=center;html=1;fontSize=16;fontStyle=0;aspect=fixed;pointerEvents=1;shape=mxgraph.aws4.bucket;shadow=0;" vertex="1" parent="pypCEFf90RMoGnQe8PBk-52">
          <mxGeometry x="480" y="-300" width="75" height="78" as="geometry" />
        </mxCell>
        <mxCell id="pypCEFf90RMoGnQe8PBk-60" value="" style="outlineConnect=0;fontColor=#232F3E;gradientColor=none;fillColor=#277116;strokeColor=none;dashed=0;verticalLabelPosition=bottom;verticalAlign=top;align=center;html=1;fontSize=16;fontStyle=0;aspect=fixed;pointerEvents=1;shape=mxgraph.aws4.bucket;shadow=0;" vertex="1" parent="pypCEFf90RMoGnQe8PBk-52">
          <mxGeometry x="580" y="-300" width="75" height="78" as="geometry" />
        </mxCell>
        <mxCell id="pypCEFf90RMoGnQe8PBk-61" value="CloudFront" style="outlineConnect=0;fontColor=#232F3E;gradientColor=#945DF2;gradientDirection=north;fillColor=#5A30B5;strokeColor=#ffffff;dashed=0;verticalLabelPosition=bottom;verticalAlign=top;align=center;html=1;fontSize=16;fontStyle=0;aspect=fixed;shape=mxgraph.aws4.resourceIcon;resIcon=mxgraph.aws4.cloudfront;shadow=0;flipH=0;flipV=0;" vertex="1" parent="pypCEFf90RMoGnQe8PBk-52">
          <mxGeometry x="240" y="-300" width="78" height="78" as="geometry" />
        </mxCell>
      </root>
    </mxGraphModel>
  </diagram>
</mxfile>
